<?xml version="1.0" encoding="utf-8"?>
<!-- Generator: Adobe Illustrator 23.0.2, SVG Export Plug-In . SVG Version: 6.00 Build 0)  -->
<svg version="1.1" id="Layer_1" xmlns="http://www.w3.org/2000/svg" xmlns:xlink="http://www.w3.org/1999/xlink" x="0px" y="0px"
	 viewBox="0 0 75 75" style="enable-background:new 0 0 75 75;" xml:space="preserve">
<style type="text/css">
	.st0{fill:#FFFFFF;}
</style>
<path id="path1314-6" class="st0" d="M0,26.8v21.4h21.4V26.8H0z M6,31.6h4.6c1.3,0,2.3,0.2,3.1,0.8c0.8,0.6,1.1,1.2,1.1,2.2
	c0,0.6-0.1,1-0.4,1.5c-0.2,0.4-0.7,0.8-1.2,1c0.7,0.2,1.2,0.6,1.7,1.1c0.3,0.4,0.6,1.1,0.6,1.8c0,0.7-0.2,1.3-0.6,1.8
	c-0.3,0.6-0.9,0.9-1.6,1.2s-1.5,0.4-2.5,0.4H6V31.6z M8.5,33.5v2.9h1.9c0.7,0,1.1-0.1,1.5-0.4c0.3-0.2,0.6-0.7,0.6-1.1
	c0-0.9-0.7-1.5-2-1.5H8.5V33.5z M8.5,38.3v3.2h2.1c0.8,0,1.3-0.1,1.7-0.4c0.4-0.2,0.6-0.7,0.6-1.2c0-1.1-0.8-1.7-2.2-1.7H8.5V38.3z
	 M53.6,26.8v21.4H75V26.8H53.6z M65.2,31.4c0.7,0,1.2,0.1,1.8,0.2c0.6,0.1,1.1,0.3,1.7,0.6v2.3c-0.4-0.3-0.9-0.6-1.5-0.7
	c-0.6-0.1-1.1-0.2-1.7-0.2c-0.8,0-1.5,0.1-2.1,0.4c-0.6,0.3-1,0.8-1.3,1.3s-0.4,1.3-0.4,2.1s0.1,1.6,0.4,2.1c0.3,0.6,0.7,1,1.2,1.3
	s1.2,0.4,2,0.4c1.2,0,2.3-0.3,3.3-1v2.3c-0.4,0.2-1,0.4-1.7,0.7c-0.7,0.1-1.3,0.2-2,0.2c-0.9,0-1.8-0.1-2.6-0.4
	c-0.8-0.3-1.3-0.7-1.9-1.2c-0.6-0.6-0.9-1.2-1.2-1.9c-0.2-0.8-0.4-1.7-0.4-2.6s0.1-1.8,0.4-2.6s0.7-1.5,1.2-1.9
	c0.6-0.4,1.2-1,1.9-1.2C63.4,31.5,64.3,31.4,65.2,31.4z M26.8,26.8v21.4h21.4V26.8H26.8z M32.8,31.6h4.6c1.3,0,2.3,0.2,3.1,0.8
	c0.8,0.6,1.1,1.2,1.1,2.2c0,0.6-0.1,1-0.4,1.5c-0.2,0.4-0.7,0.8-1.2,1c0.7,0.2,1.2,0.6,1.7,1.1c0.3,0.4,0.6,1.1,0.6,1.8
	c0,0.7-0.2,1.3-0.6,1.8c-0.3,0.6-0.9,0.9-1.6,1.2c-0.7,0.2-1.5,0.4-2.5,0.4h-4.8C32.8,43.4,32.8,31.6,32.8,31.6z M35.3,33.5v2.9h1.9
	c0.7,0,1.1-0.1,1.5-0.4c0.3-0.2,0.6-0.7,0.6-1.1c0-0.9-0.7-1.5-2-1.5h-1.9V33.5z M35.3,38.3v3.2h2.1c0.8,0,1.3-0.1,1.7-0.4
	c0.4-0.2,0.6-0.7,0.6-1.2c0-1.1-0.8-1.7-2.2-1.7h-2.1V38.3z"/>
</svg>
