<?xml version="1.0" encoding="utf-8"?>
<!-- Generator: Adobe Illustrator 23.0.2, SVG Export Plug-In . SVG Version: 6.00 Build 0)  -->
<svg version="1.1" id="Layer_1" xmlns="http://www.w3.org/2000/svg" xmlns:xlink="http://www.w3.org/1999/xlink" x="0px" y="0px"
	 viewBox="0 0 75 75" style="enable-background:new 0 0 75 75;" xml:space="preserve">
<style type="text/css">
	.st0{fill:#4285F4;}
	.st1{fill:#34A853;}
	.st2{fill:#FBBC04;}
	.st3{fill:#EA4335;}
	.st4{fill:#C5221F;}
</style>
<g>
	<path class="st0" d="M5.1,65.6H17v-29L0,23.9v36.6C0,63.3,2.3,65.6,5.1,65.6"/>
	<path class="st1" d="M58,65.6h11.9c2.8,0,5.1-2.3,5.1-5.1V23.9L58,36.7"/>
	<path class="st2" d="M58,14.5v22.2l17-12.8v-6.8c0-6.3-7.2-9.9-12.3-6.1"/>
	<path class="st3" d="M17,36.7V14.5l20.5,15.3L58,14.5v22.2L37.5,52"/>
	<path class="st4" d="M0,17.1v6.8l17,12.8V14.5l-4.8-3.6C7.2,7.1,0,10.7,0,17.1"/>
</g>
</svg>
