<?xml version="1.0" encoding="utf-8"?>
<!-- Generator: Adobe Illustrator 23.0.2, SVG Export Plug-In . SVG Version: 6.00 Build 0)  -->
<svg version="1.1" id="Layer_1" xmlns="http://www.w3.org/2000/svg" xmlns:xlink="http://www.w3.org/1999/xlink" x="0px" y="0px"
	 viewBox="0 0 75 75" style="enable-background:new 0 0 75 75;" xml:space="preserve">
<style type="text/css">
	.st0{fill:#0C9D58;}
	.st1{opacity:0.2;fill:#004D40;enable-background:new    ;}
	.st2{opacity:0.2;fill:#FFFFFF;enable-background:new    ;}
	.st3{fill:#EA4335;}
	.st4{opacity:0.2;fill:#3E2723;enable-background:new    ;}
	.st5{fill:#FFC107;}
	.st6{fill:#4285F4;}
	.st7{fill:#FFFFFF;}
	.st8{opacity:0.2;fill:#1A237E;enable-background:new    ;}
	.st9{opacity:0.2;}
	.st10{fill:#1A237E;}
	.st11{fill:url(#SVGID_1_);}
</style>
<g>
	<path class="st0" d="M59.7,48.4c0,1-0.9,1.9-1.9,1.9H17.3c-1.1,0-1.9-0.9-1.9-1.9V8.7c0-1,0.9-1.9,1.9-1.9h40.5
		c1.1,0,1.9,0.9,1.9,1.9L59.7,48.4L59.7,48.4z"/>
	<polygon class="st1" points="59.7,17 44.5,15.1 59.7,19.1 	"/>
	<path class="st1" d="M38.2,8.9l-23,10.3l25.4-9.2v0C40.2,8.9,39.1,8.5,38.2,8.9L38.2,8.9z"/>
	<path class="st2" d="M57.7,6.8H17.3c-1.1,0-1.9,0.9-1.9,1.9v0.4c0-1,0.9-1.9,1.9-1.9h40.5c1.1,0,1.9,0.9,1.9,1.9V8.7
		C59.7,7.7,58.8,6.8,57.7,6.8z"/>
	<path class="st3" d="M25.2,47.2c-0.3,1,0.3,2.1,1.2,2.3l37.5,10.1c0.9,0.3,1.9-0.4,2.2-1.4l8.8-33c0.3-1-0.3-2.1-1.2-2.3L36.2,12.9
		c-0.9-0.3-1.9,0.4-2.2,1.4L25.2,47.2z"/>
	<polygon class="st4" points="66.5,37 68.4,49 66.5,56.4 	"/>
	<polygon class="st4" points="44.7,15.6 46.4,16 47.5,23.4 	"/>
	<path class="st2" d="M73.7,22.9L36.2,12.9c-0.9-0.3-1.9,0.4-2.2,1.4l-8.8,33c0,0.1,0,0.1,0,0.2l8.8-32.7c0.3-1,1.3-1.6,2.2-1.4
		l37.5,10.1c0.9,0.2,1.4,1.2,1.2,2.1l0.1-0.3C75.2,24.2,74.7,23.2,73.7,22.9L73.7,22.9z"/>
	<path class="st5" d="M54.7,43.2c0.4,1-0.1,2.1-1,2.4L14.1,60c-0.9,0.3-2-0.2-2.3-1.2L0.1,26.7c-0.4-1,0.1-2.1,1-2.4L40.7,9.9
		c0.9-0.3,2,0.2,2.3,1.2L54.7,43.2z"/>
	<path class="st2" d="M0.3,27.1c-0.4-1,0.1-2.1,1-2.4l39.6-14.4c0.9-0.3,1.9,0.2,2.3,1.2L43,11.1c-0.4-1-1.4-1.5-2.3-1.2L1.1,24.3
		c-0.9,0.3-1.4,1.4-1,2.4l11.7,32.1c0,0,0,0,0,0L0.3,27.1z"/>
	<path class="st6" d="M66.5,66.3c0,1.1-0.9,1.9-1.9,1.9H10.4c-1.1,0-1.9-0.9-1.9-1.9V25.4c0-1.1,0.9-1.9,1.9-1.9h54.1
		c1.1,0,1.9,0.9,1.9,1.9V66.3z"/>
	<path class="st7" d="M56.1,39.6H39.9v-4.3h16.2c0.5,0,0.9,0.4,0.9,0.9v2.6C57,39.2,56.6,39.6,56.1,39.6z M56.1,55.8H39.9v-4.3h16.2
		c0.5,0,0.9,0.4,0.9,0.9V55C57,55.4,56.6,55.8,56.1,55.8z M58.7,47.7H39.9v-4.3h18.7c0.5,0,0.9,0.4,0.9,0.9v2.6
		C59.6,47.3,59.2,47.7,58.7,47.7L58.7,47.7z"/>
	<path class="st8" d="M64.6,67.8H10.4c-1.1,0-1.9-0.9-1.9-1.9v0.4c0,1.1,0.9,1.9,1.9,1.9h54.1c1.1,0,1.9-0.9,1.9-1.9v-0.4
		C66.5,66.9,65.6,67.8,64.6,67.8z"/>
	<path class="st2" d="M10.4,23.9h54.1c1.1,0,1.9,0.9,1.9,1.9v-0.4c0-1.1-0.9-1.9-1.9-1.9H10.4c-1.1,0-1.9,0.9-1.9,1.9v0.4
		C8.5,24.7,9.4,23.9,10.4,23.9L10.4,23.9z"/>
	<path class="st7" d="M25.5,43.9v3.8H31c-0.5,2.3-2.5,4-5.5,4c-3.3,0-6.1-2.8-6.1-6.2c0-3.3,2.7-6.2,6.1-6.2c1.5,0,2.9,0.5,3.9,1.5
		v0l2.9-2.9c-1.8-1.7-4.1-2.7-6.8-2.7c-5.6,0-10.2,4.6-10.2,10.2s4.6,10.2,10.2,10.2c5.9,0,9.8-4.2,9.8-10c0-0.7-0.1-1.3-0.2-1.9
		H25.5z"/>
	<g class="st9">
		<path class="st10" d="M25.6,47.7v0.4H31c0-0.1,0.1-0.3,0.1-0.4H25.6z"/>
		<path class="st10" d="M25.6,55.8c-5.6,0-10.1-4.5-10.2-10c0,0.1,0,0.1,0,0.2c0,5.6,4.6,10.2,10.2,10.2c5.9,0,9.8-4.2,9.8-10
			c0,0,0-0.1,0-0.1C35.2,51.8,31.4,55.8,25.6,55.8z M29.5,41c-1.1-1-2.4-1.5-3.9-1.5c-3.3,0-6.1,2.8-6.1,6.2c0,0.1,0,0.1,0,0.2
			c0.1-3.3,2.8-6,6.1-6c1.5,0,2.9,0.5,3.9,1.5v0l3.1-3.1c-0.1-0.1-0.2-0.1-0.2-0.2L29.5,41L29.5,41z"/>
	</g>
	<path class="st8" d="M57,39.2v-0.4c0,0.5-0.4,0.9-0.9,0.9H39.9v0.4h16.2C56.6,40.1,57,39.7,57,39.2L57,39.2z M56.1,55.8H39.9v0.4
		h16.2c0.5,0,0.9-0.4,0.9-0.9V55C57,55.4,56.6,55.8,56.1,55.8z M58.7,47.7H39.9v0.4h18.7c0.5,0,0.9-0.4,0.9-0.9v-0.4
		C59.6,47.3,59.2,47.7,58.7,47.7L58.7,47.7z"/>
	
		<radialGradient id="SVGID_1_" cx="16.9031" cy="64.21" r="72.9364" gradientTransform="matrix(1 0 0 -1 0 76)" gradientUnits="userSpaceOnUse">
		<stop  offset="0" style="stop-color:#FFFFFF;stop-opacity:0.1"/>
		<stop  offset="1" style="stop-color:#FFFFFF;stop-opacity:0"/>
	</radialGradient>
	<path class="st11" d="M73.7,22.9l-14.1-3.8V8.7c0-1-0.9-1.9-1.9-1.9H17.3c-1.1,0-1.9,0.9-1.9,1.9v10.4L1.1,24.3
		c-0.9,0.3-1.4,1.4-1,2.4l8.4,23.1v16.5c0,1.1,0.9,1.9,1.9,1.9h54.1c1.1,0,1.9-0.9,1.9-1.9v-9.5l8.5-31.5
		C75.2,24.2,74.7,23.2,73.7,22.9L73.7,22.9z"/>
</g>
</svg>
