<?xml version="1.0" encoding="utf-8"?>
<!-- Generator: Adobe Illustrator 23.0.2, SVG Export Plug-In . SVG Version: 6.00 Build 0)  -->
<svg version="1.1" id="Layer_1" xmlns="http://www.w3.org/2000/svg" xmlns:xlink="http://www.w3.org/1999/xlink" x="0px" y="0px"
	 viewBox="0 0 75 75" style="enable-background:new 0 0 75 75;" xml:space="preserve">
<style type="text/css">
	.st0{fill:#EE4023;}
</style>
<g>
	<g>
		<path class="st0" d="M37.3,72c14.4,0,26.2-11.8,26.2-26.2S51.8,19.6,37.3,19.6S11.1,31.4,11.1,45.8C11.1,60.3,22.9,72,37.3,72"/>
		<g>
			<rect x="36" y="3" class="st0" width="3.1" height="13.4"/>
		</g>
		<g>
			
				<rect x="48.5" y="13" transform="matrix(0.4864 -0.8737 0.8737 0.4864 15.6439 55.7155)" class="st0" width="13.4" height="3.1"/>
		</g>
		<g>
			
				<rect x="61.8" y="25.7" transform="matrix(0.8517 -0.524 0.524 0.8517 -4.1486 39.9285)" class="st0" width="13.4" height="3.1"/>
		</g>
		<g>
			<rect x="18.1" y="7.7" transform="matrix(0.873 -0.4878 0.4878 0.873 -4.4958 11.4219)" class="st0" width="3.1" height="13.3"/>
		</g>
		<g>
			<rect x="5" y="20.5" transform="matrix(0.5123 -0.8588 0.8588 0.5123 -20.112 18.8859)" class="st0" width="3.1" height="13.3"/>
		</g>
	</g>
</g>
</svg>
