<?xml version="1.0" encoding="utf-8"?>
<!-- Generator: Adobe Illustrator 23.0.2, SVG Export Plug-In . SVG Version: 6.00 Build 0)  -->
<svg version="1.1" id="Layer_1" xmlns="http://www.w3.org/2000/svg" xmlns:xlink="http://www.w3.org/1999/xlink" x="0px" y="0px"
	 viewBox="0 0 75 75" style="enable-background:new 0 0 75 75;" xml:space="preserve">
<style type="text/css">
	.st0{fill:#BA2B27;}
	.st1{fill:#1B9B5B;}
</style>
<path class="st0" d="M73.3,67.9L66.2,61c5.2-6.4,8.4-14.6,8.4-23.5c0-20.5-16.6-37-37-37s-37,16.6-37,37c0,20.4,16.5,36.9,36.8,37h0
	c0.1,0,0.1,0,0.2,0h33.2C74.2,74.5,75.9,70.2,73.3,67.9z M15.4,37.5c0-12.2,9.9-22.1,22.1-22.1s22.1,9.9,22.1,22.1
	c0,12.2-9.9,22.1-22.1,22.1S15.4,49.7,15.4,37.5z"/>
<path class="st1" d="M37.6,37.5h-0.2l0,0h0C37.5,37.5,37.5,37.5,37.6,37.5z"/>
</svg>
