<?xml version="1.0" encoding="utf-8"?>
<!-- Generator: Adobe Illustrator 23.0.2, SVG Export Plug-In . SVG Version: 6.00 Build 0)  -->
<svg version="1.1" id="Layer_1" xmlns="http://www.w3.org/2000/svg" xmlns:xlink="http://www.w3.org/1999/xlink" x="0px" y="0px"
	 viewBox="0 0 75 75" style="enable-background:new 0 0 75 75;" xml:space="preserve">
<style type="text/css">
	.st0{fill:#1D9BF0;}
</style>
<path class="st0" d="M67.3,22.2c0,0.7,0,1.3,0,2C67.4,44.5,51.9,68,23.6,68v0C15.2,68,7,65.6,0,61.1c1.2,0.1,2.4,0.2,3.7,0.2
	c6.9,0,13.7-2.3,19.1-6.6C16.2,54.6,10.4,50.3,8.4,44c2.3,0.4,4.7,0.4,6.9-0.3C8.2,42.3,3,36,3,28.7v-0.2c2.1,1.2,4.5,1.9,7,1.9
	C3.2,25.9,1.1,16.9,5.2,9.8c7.8,9.6,19.3,15.5,31.7,16.1c-1.2-5.3,0.5-10.9,4.5-14.7c6.2-5.8,15.9-5.5,21.8,0.7
	c3.4-0.7,6.7-1.9,9.8-3.7c-1.1,3.6-3.6,6.6-6.8,8.5c3-0.4,6-1.2,8.8-2.4C72.9,17.3,70.3,20,67.3,22.2L67.3,22.2z"/>
</svg>
