<?xml version="1.0" encoding="utf-8"?>
<!-- Generator: Adobe Illustrator 26.0.1, SVG Export Plug-In . SVG Version: 6.00 Build 0)  -->
<svg version="1.1" id="Layer_1" xmlns="http://www.w3.org/2000/svg" xmlns:xlink="http://www.w3.org/1999/xlink" x="0px" y="0px"
	 viewBox="0 0 137.4 11.4" style="enable-background:new 0 0 137.4 11.4;" xml:space="preserve">
<style type="text/css">
	.st0{fill:#0477BF;}
</style>
<g>
	<g>
		<path class="st0" d="M0,6.2V5.2h7v0.9H0z M3,9.1V2.3h1v6.8H3z"/>
		<path class="st0" d="M13.2,11.4c-0.9,0-1.7-0.1-2.3-0.4s-1.1-0.6-1.5-1.1C9,9.4,8.8,8.8,8.8,8.2C8.8,7.5,9,7,9.4,6.5
			c0.3-0.5,0.8-0.8,1.5-1c0.6-0.2,1.4-0.4,2.3-0.4c0.9,0,1.7,0.1,2.3,0.4c0.7,0.2,1.1,0.6,1.5,1c0.3,0.5,0.5,1,0.5,1.6
			c0,0.7-0.2,1.2-0.5,1.7s-0.9,0.9-1.5,1.1C14.8,11.3,14.1,11.4,13.2,11.4z M13.2,5.8c-0.8,0-1.5-0.1-2.1-0.3c-0.6-0.2-1-0.5-1.3-1
			C9.4,4.1,9.2,3.5,9.2,3c0-0.6,0.2-1.1,0.5-1.6c0.3-0.4,0.8-0.8,1.4-1C11.7,0.1,12.4,0,13.2,0s1.5,0.1,2.1,0.4
			c0.6,0.2,1.1,0.6,1.4,1c0.3,0.4,0.5,1,0.5,1.6c0,0.6-0.2,1.1-0.5,1.5c-0.3,0.4-0.8,0.7-1.4,1C14.7,5.7,14,5.8,13.2,5.8z
			 M13.2,10.4c1,0,1.8-0.2,2.3-0.6s0.8-1,0.8-1.6c0-0.7-0.3-1.2-0.8-1.6s-1.3-0.6-2.3-0.6c-1,0-1.8,0.2-2.3,0.6
			C10.3,6.9,10,7.5,10,8.2c0,0.7,0.3,1.2,0.8,1.6C11.4,10.2,12.2,10.4,13.2,10.4z M13.2,5c0.9,0,1.6-0.2,2-0.5C15.7,4.1,16,3.6,16,3
			c0-0.6-0.3-1.1-0.8-1.5C14.7,1.2,14,1,13.2,1s-1.5,0.2-2,0.5c-0.5,0.4-0.8,0.9-0.8,1.5c0,0.6,0.2,1.1,0.7,1.5
			C11.6,4.8,12.3,5,13.2,5z"/>
		<path class="st0" d="M23.4,11.4c-0.9,0-1.7-0.1-2.3-0.4s-1.1-0.6-1.5-1.1c-0.3-0.5-0.5-1.1-0.5-1.7c0-0.6,0.2-1.2,0.5-1.6
			c0.3-0.5,0.8-0.8,1.5-1c0.6-0.2,1.4-0.4,2.3-0.4c0.9,0,1.7,0.1,2.3,0.4c0.7,0.2,1.1,0.6,1.5,1c0.3,0.5,0.5,1,0.5,1.6
			c0,0.7-0.2,1.2-0.5,1.7s-0.9,0.9-1.5,1.1C25,11.3,24.3,11.4,23.4,11.4z M23.4,5.8c-0.8,0-1.5-0.1-2.1-0.3c-0.6-0.2-1-0.5-1.3-1
			c-0.3-0.4-0.5-0.9-0.5-1.5c0-0.6,0.2-1.1,0.5-1.6c0.3-0.4,0.8-0.8,1.4-1C21.9,0.1,22.6,0,23.4,0s1.5,0.1,2.1,0.4
			c0.6,0.2,1.1,0.6,1.4,1c0.3,0.4,0.5,1,0.5,1.6c0,0.6-0.2,1.1-0.5,1.5c-0.3,0.4-0.8,0.7-1.4,1C24.9,5.7,24.2,5.8,23.4,5.8z
			 M23.4,10.4c1,0,1.8-0.2,2.3-0.6s0.8-1,0.8-1.6c0-0.7-0.3-1.2-0.8-1.6s-1.3-0.6-2.3-0.6c-1,0-1.8,0.2-2.3,0.6
			c-0.6,0.4-0.8,0.9-0.8,1.6c0,0.7,0.3,1.2,0.8,1.6C21.6,10.2,22.4,10.4,23.4,10.4z M23.4,5c0.9,0,1.6-0.2,2-0.5
			c0.5-0.4,0.7-0.8,0.7-1.5c0-0.6-0.3-1.1-0.8-1.5c-0.5-0.4-1.2-0.5-2-0.5s-1.5,0.2-2,0.5c-0.5,0.4-0.8,0.9-0.8,1.5
			c0,0.6,0.2,1.1,0.7,1.5C21.8,4.8,22.5,5,23.4,5z"/>
		<path class="st0" d="M33.8,11.4c-0.9,0-1.6-0.2-2.3-0.7c-0.7-0.5-1.2-1.1-1.6-2c-0.4-0.8-0.6-1.9-0.6-3.1c0-1.2,0.2-2.2,0.6-3.1
			c0.4-0.8,0.9-1.5,1.6-2C32.2,0.2,32.9,0,33.8,0c0.9,0,1.6,0.2,2.3,0.7c0.7,0.5,1.2,1.1,1.6,2s0.6,1.9,0.6,3.1
			c0,1.2-0.2,2.2-0.6,3.1c-0.4,0.8-0.9,1.5-1.6,2C35.4,11.2,34.7,11.4,33.8,11.4z M33.8,10.3c0.7,0,1.2-0.2,1.7-0.5
			c0.5-0.4,0.9-0.9,1.2-1.6s0.4-1.5,0.4-2.5c0-1-0.1-1.8-0.4-2.5S36,1.9,35.5,1.6c-0.5-0.4-1.1-0.5-1.7-0.5c-0.6,0-1.2,0.2-1.7,0.5
			c-0.5,0.4-0.9,0.9-1.2,1.6s-0.4,1.5-0.4,2.5c0,1,0.1,1.8,0.4,2.5s0.7,1.2,1.2,1.6C32.6,10.2,33.2,10.3,33.8,10.3z"/>
		<path class="st0" d="M46.1,11.3V0.6l0.5,0.5h-3.2v-1h3.8v11.2H46.1z"/>
		<path class="st0" d="M51.9,11.3l4.8-10.7L57,1.1h-6.9l0.6-0.6v2.7h-1.1V0.1h8.2v0.8l-4.7,10.4H51.9z"/>
		<path class="st0" d="M61.4,11.3V0.6l0.5,0.5h-3.2v-1h3.8v11.2H61.4z"/>
		<path class="st0" d="M69.7,11.4c-0.9,0-1.6-0.2-2.3-0.7c-0.7-0.5-1.2-1.1-1.6-2c-0.4-0.8-0.6-1.9-0.6-3.1c0-1.2,0.2-2.2,0.6-3.1
			c0.4-0.8,0.9-1.5,1.6-2C68.1,0.2,68.8,0,69.7,0c0.9,0,1.6,0.2,2.3,0.7c0.7,0.5,1.2,1.1,1.6,2s0.6,1.9,0.6,3.1
			c0,1.2-0.2,2.2-0.6,3.1c-0.4,0.8-0.9,1.5-1.6,2C71.3,11.2,70.6,11.4,69.7,11.4z M69.7,10.3c0.7,0,1.2-0.2,1.7-0.5
			c0.5-0.4,0.9-0.9,1.2-1.6S73,6.7,73,5.7c0-1-0.1-1.8-0.4-2.5s-0.7-1.2-1.2-1.6c-0.5-0.4-1.1-0.5-1.7-0.5c-0.6,0-1.2,0.2-1.7,0.5
			c-0.5,0.4-0.9,0.9-1.2,1.6s-0.4,1.5-0.4,2.5c0,1,0.1,1.8,0.4,2.5s0.7,1.2,1.2,1.6C68.5,10.2,69.1,10.3,69.7,10.3z"/>
		<path class="st0" d="M83.5,0c1,0,1.8,0.2,2.5,0.7c0.7,0.4,1.2,1.1,1.6,1.9c0.4,0.8,0.5,1.8,0.5,3c0,1.3-0.2,2.3-0.6,3.2
			c-0.4,0.9-1,1.5-1.8,2c-0.8,0.4-1.7,0.7-2.7,0.7c-0.5,0-1,0-1.4-0.1c-0.5-0.1-0.9-0.3-1.2-0.5l0.5-0.9c0.3,0.2,0.6,0.3,1,0.4
			c0.4,0.1,0.8,0.1,1.2,0.1c1.2,0,2.2-0.4,2.9-1.2c0.7-0.8,1.1-1.9,1.1-3.4c0-0.2,0-0.5,0-0.9c0-0.3-0.1-0.7-0.2-1l0.4,0.3
			c-0.1,0.6-0.3,1-0.7,1.4c-0.3,0.4-0.8,0.7-1.3,0.9c-0.5,0.2-1.1,0.3-1.7,0.3c-0.7,0-1.4-0.1-2-0.4c-0.6-0.3-1-0.7-1.3-1.2
			c-0.3-0.5-0.5-1.1-0.5-1.8c0-0.7,0.2-1.3,0.5-1.8c0.3-0.5,0.8-0.9,1.4-1.2C82.1,0.1,82.8,0,83.5,0z M83.6,1c-0.5,0-1,0.1-1.4,0.3
			c-0.4,0.2-0.7,0.5-1,0.8c-0.2,0.4-0.4,0.8-0.4,1.3c0,0.7,0.3,1.3,0.8,1.8c0.5,0.4,1.2,0.7,2.1,0.7c0.6,0,1.1-0.1,1.5-0.3
			s0.8-0.5,1-0.9c0.2-0.4,0.4-0.8,0.4-1.2c0-0.4-0.1-0.8-0.3-1.2c-0.2-0.4-0.6-0.7-1-0.9C84.8,1.1,84.2,1,83.6,1z"/>
		<path class="st0" d="M91.7,11.3V0.6l0.5,0.5h-3.2v-1h3.8v11.2H91.7z"/>
		<path class="st0" d="M99,0c1,0,1.8,0.2,2.5,0.7c0.7,0.4,1.2,1.1,1.6,1.9c0.4,0.8,0.5,1.8,0.5,3c0,1.3-0.2,2.3-0.6,3.2
			c-0.4,0.9-1,1.5-1.8,2c-0.8,0.4-1.7,0.7-2.7,0.7c-0.5,0-1,0-1.4-0.1c-0.5-0.1-0.9-0.3-1.2-0.5l0.5-0.9c0.3,0.2,0.6,0.3,1,0.4
			c0.4,0.1,0.8,0.1,1.2,0.1c1.2,0,2.2-0.4,2.9-1.2c0.7-0.8,1.1-1.9,1.1-3.4c0-0.2,0-0.5,0-0.9c0-0.3-0.1-0.7-0.2-1l0.4,0.3
			c-0.1,0.6-0.3,1-0.7,1.4c-0.3,0.4-0.8,0.7-1.3,0.9c-0.5,0.2-1.1,0.3-1.7,0.3c-0.7,0-1.4-0.1-2-0.4c-0.6-0.3-1-0.7-1.3-1.2
			c-0.3-0.5-0.5-1.1-0.5-1.8c0-0.7,0.2-1.3,0.5-1.8c0.3-0.5,0.8-0.9,1.4-1.2C97.7,0.1,98.3,0,99,0z M99.1,1c-0.5,0-1,0.1-1.4,0.3
			c-0.4,0.2-0.7,0.5-1,0.8c-0.2,0.4-0.4,0.8-0.4,1.3c0,0.7,0.3,1.3,0.8,1.8c0.5,0.4,1.2,0.7,2.1,0.7c0.6,0,1.1-0.1,1.5-0.3
			s0.8-0.5,1-0.9c0.2-0.4,0.4-0.8,0.4-1.2c0-0.4-0.1-0.8-0.3-1.2c-0.2-0.4-0.6-0.7-1-0.9C100.3,1.1,99.7,1,99.1,1z"/>
		<path class="st0" d="M114.1,11.4c-1,0-1.8-0.2-2.5-0.7c-0.7-0.4-1.2-1.1-1.6-1.9s-0.5-1.8-0.5-3c0-1.3,0.2-2.3,0.6-3.2
			c0.4-0.9,1-1.5,1.8-1.9c0.8-0.4,1.7-0.7,2.7-0.7c0.5,0,1,0,1.4,0.1c0.5,0.1,0.9,0.3,1.2,0.5l-0.5,0.9c-0.3-0.2-0.6-0.3-1-0.4
			S115,1,114.6,1c-1.2,0-2.2,0.4-2.9,1.2c-0.7,0.8-1.1,1.9-1.1,3.4c0,0.2,0,0.5,0,0.9c0,0.3,0.1,0.7,0.2,1l-0.4-0.3
			c0.1-0.6,0.3-1,0.7-1.4c0.3-0.4,0.8-0.7,1.3-0.9s1.1-0.3,1.7-0.3c0.7,0,1.4,0.1,2,0.4s1,0.7,1.3,1.2c0.3,0.5,0.5,1.1,0.5,1.8
			c0,0.7-0.2,1.3-0.5,1.8c-0.3,0.5-0.8,0.9-1.4,1.2C115.5,11.3,114.8,11.4,114.1,11.4z M114,10.4c0.5,0,1-0.1,1.4-0.3s0.7-0.5,1-0.8
			c0.2-0.4,0.4-0.8,0.4-1.3c0-0.7-0.3-1.3-0.8-1.8c-0.5-0.4-1.2-0.7-2.1-0.7c-0.6,0-1.1,0.1-1.5,0.3c-0.4,0.2-0.8,0.5-1,0.9
			c-0.2,0.4-0.4,0.8-0.4,1.3c0,0.4,0.1,0.8,0.3,1.2c0.2,0.4,0.6,0.7,1,0.9C112.9,10.3,113.4,10.4,114,10.4z"/>
		<path class="st0" d="M119,8.4V7.5l5.9-7.4h1.3l-5.9,7.4l-0.6-0.2h9v1H119z M125.4,11.3V8.4l0-1V4.7h1.1v6.6H125.4z"/>
		<path class="st0" d="M133.3,11.4c-0.8,0-1.6-0.1-2.3-0.4c-0.7-0.3-1.3-0.6-1.7-1l0.6-0.9c0.4,0.4,0.8,0.7,1.4,0.9
			c0.6,0.2,1.3,0.4,2,0.4c0.9,0,1.7-0.2,2.2-0.6s0.7-1,0.7-1.7c0-0.5-0.1-0.9-0.3-1.2s-0.6-0.6-1.2-0.8c-0.5-0.2-1.3-0.3-2.2-0.3
			h-2.4l0.6-5.6h6.1v1h-5.7l0.6-0.6l-0.5,4.7l-0.6-0.6h2.1c1.1,0,2,0.1,2.7,0.4s1.2,0.7,1.5,1.2c0.3,0.5,0.5,1.1,0.5,1.7
			c0,0.6-0.1,1.2-0.4,1.7c-0.3,0.5-0.7,0.9-1.3,1.2C135,11.2,134.2,11.4,133.3,11.4z"/>
	</g>
</g>
</svg>
